<svg viewBox="0 0 36 37" xmlns="http://www.w3.org/2000/svg">
<path fill-rule="evenodd" clip-rule="evenodd" d="M5.196 30.9912C7.395 33.1872 10.929 33.1872 18 33.1872C25.071 33.1872 28.6065 33.1872 30.8025 30.9897C33 28.7952 33 25.2582 33 18.1872C33 11.1162 33 7.58066 30.8025 5.38316C28.608 3.18716 25.071 3.18716 18 3.18716C10.929 3.18716 7.3935 3.18716 5.196 5.38316C3 7.58216 3 11.1162 3 18.1872C3 25.2582 3 28.7952 5.196 30.9912ZM28.125 24.1872C28.125 24.4855 28.0065 24.7717 27.7955 24.9827C27.5845 25.1936 27.2984 25.3122 27 25.3122H9C8.70163 25.3122 8.41548 25.1936 8.2045 24.9827C7.99353 24.7717 7.875 24.4855 7.875 24.1872C7.875 23.8888 7.99353 23.6026 8.2045 23.3917C8.41548 23.1807 8.70163 23.0622 9 23.0622H27C27.2984 23.0622 27.5845 23.1807 27.7955 23.3917C28.0065 23.6026 28.125 23.8888 28.125 24.1872ZM27 19.3122C27.2984 19.3122 27.5845 19.1936 27.7955 18.9827C28.0065 18.7717 28.125 18.4855 28.125 18.1872C28.125 17.8888 28.0065 17.6026 27.7955 17.3917C27.5845 17.1807 27.2984 17.0622 27 17.0622H9C8.70163 17.0622 8.41548 17.1807 8.2045 17.3917C7.99353 17.6026 7.875 17.8888 7.875 18.1872C7.875 18.4855 7.99353 18.7717 8.2045 18.9827C8.41548 19.1936 8.70163 19.3122 9 19.3122H27ZM28.125 12.1872C28.125 12.4855 28.0065 12.7717 27.7955 12.9827C27.5845 13.1936 27.2984 13.3122 27 13.3122H9C8.70163 13.3122 8.41548 13.1936 8.2045 12.9827C7.99353 12.7717 7.875 12.4855 7.875 12.1872C7.875 11.8888 7.99353 11.6026 8.2045 11.3917C8.41548 11.1807 8.70163 11.0622 9 11.0622H27C27.2984 11.0622 27.5845 11.1807 27.7955 11.3917C28.0065 11.6026 28.125 11.8888 28.125 12.1872Z" fill="black"/>
</svg>
