<svg viewBox="0 0 37 37" xmlns="http://www.w3.org/2000/svg">
<path d="M6.274 31.726C4.55481 30.0656 3.18353 28.0794 2.24017 25.8833C1.29681 23.6872 0.800257 21.3252 0.779488 18.9352C0.75872 16.5452 1.21415 14.175 2.11921 11.9628C3.02426 9.75069 4.36082 7.74096 6.05089 6.05089C7.74095 4.36082 9.75069 3.02427 11.9628 2.11921C14.175 1.21415 16.5452 0.758723 18.9352 0.779492C21.3252 0.800261 23.6872 1.29681 25.8833 2.24017C28.0793 3.18354 30.0656 4.55482 31.726 6.274C35.0048 9.66884 36.8191 14.2157 36.7781 18.9352C36.7371 23.6548 34.8441 28.1694 31.5067 31.5067C28.1694 34.8441 23.6548 36.7371 18.9352 36.7781C14.2157 36.8191 9.66884 35.0048 6.274 31.726ZM29.188 29.188C31.89 26.486 33.408 22.8212 33.408 19C33.408 15.1788 31.89 11.514 29.188 8.812C26.486 6.10997 22.8212 4.59199 19 4.59199C15.1788 4.59199 11.514 6.10997 8.812 8.812C6.10997 11.514 4.59199 15.1788 4.59199 19C4.59199 22.8212 6.10997 26.486 8.812 29.188C11.514 31.89 15.1788 33.408 19 33.408C22.8212 33.408 26.486 31.89 29.188 29.188ZM13.6 11.8L28 19L13.6 26.2V11.8Z" fill="black"/>
</svg>
