<svg viewBox="0 0 36 36" xmlns="http://www.w3.org/2000/svg">
<path d="M18 31.5C19.7728 31.5 21.5283 31.1508 23.1662 30.4724C24.8041 29.7939 26.2923 28.7995 27.5459 27.5459C28.7995 26.2923 29.7939 24.8041 30.4724 23.1662C31.1508 21.5283 31.5 19.7728 31.5 18C31.5 16.2272 31.1508 14.4717 30.4724 12.8338C29.7939 11.1959 28.7995 9.70765 27.5459 8.45406C26.2923 7.20047 24.8041 6.20606 23.1662 5.52763C21.5283 4.84919 19.7728 4.5 18 4.5C14.4196 4.5 10.9858 5.92232 8.45406 8.45406C5.92232 10.9858 4.5 14.4196 4.5 18C4.5 21.5804 5.92232 25.0142 8.45406 27.5459C10.9858 30.0777 14.4196 31.5 18 31.5ZM34.5 18C34.5 27.1125 27.1125 34.5 18 34.5C8.8875 34.5 1.5 27.1125 1.5 18C1.5 8.8875 8.8875 1.5 18 1.5C27.1125 1.5 34.5 8.8875 34.5 18ZM22.5 24.621L16.5 18.621V8.25H19.5V17.379L24.621 22.5L22.5 24.621Z" fill="black"/>
</svg>
